<?xml version="1.0" encoding="utf-8"?>
<!-- Generator: Adobe Illustrator 17.0.0, SVG Export Plug-In . SVG Version: 6.00 Build 0)  -->
<!DOCTYPE svg PUBLIC "-//W3C//DTD SVG 1.1//EN" "http://www.w3.org/Graphics/SVG/1.1/DTD/svg11.dtd">
<svg version="1.1" id="Слой_1" xmlns="http://www.w3.org/2000/svg" xmlns:xlink="http://www.w3.org/1999/xlink" x="0px" y="0px"
	 width="15px" height="16px" viewBox="0 0 15 16" enable-background="new 0 0 15 16" xml:space="preserve">
<path fill="#FFFFFF" d="M7.492,12.494c-0.14,0-0.255,0.113-0.255,0.251v0.939c0,0.138,0.114,0.251,0.255,0.251
	c0.142,0,0.256-0.113,0.256-0.251v-0.939C7.748,12.607,7.633,12.494,7.492,12.494z"/>
<path fill="#FFFFFF" d="M3.978,8.365c-0.142,0-0.256,0.112-0.256,0.249v0.94c0,0.138,0.114,0.249,0.256,0.249
	c0.14,0,0.254-0.112,0.254-0.249v-0.94C4.233,8.477,4.118,8.365,3.978,8.365z"/>
<path fill="#FFFFFF" d="M5.735,12.494c-0.142,0-0.256,0.113-0.256,0.251v0.939c0,0.138,0.116,0.251,0.256,0.251
	s0.255-0.113,0.255-0.251v-0.939C5.99,12.607,5.875,12.494,5.735,12.494z"/>
<path fill="#FFFFFF" d="M7.492,14.559c-0.14,0-0.255,0.112-0.255,0.251v0.937c0,0.139,0.114,0.251,0.255,0.251
	c0.142,0,0.256-0.112,0.256-0.251V14.81C7.748,14.671,7.633,14.559,7.492,14.559z"/>
<path fill="#FFFFFF" d="M5.735,8.365c-0.142,0-0.256,0.112-0.256,0.249v0.94c0,0.138,0.116,0.249,0.256,0.249S5.99,9.692,5.99,9.554
	v-0.94C5.99,8.477,5.875,8.365,5.735,8.365z"/>
<path fill="#FFFFFF" d="M5.735,10.429c-0.142,0-0.256,0.113-0.256,0.251v0.939c0,0.139,0.116,0.251,0.256,0.251
	s0.255-0.112,0.255-0.251v-0.939C5.99,10.54,5.875,10.429,5.735,10.429z"/>
<path fill="#FFFFFF" d="M5.735,14.559c-0.142,0-0.256,0.112-0.256,0.251v0.937c0,0.139,0.116,0.251,0.256,0.251
	s0.255-0.112,0.255-0.251V14.81C5.99,14.671,5.875,14.559,5.735,14.559z"/>
<path fill="#FFFFFF" d="M2.221,12.494c-0.142,0-0.256,0.113-0.256,0.251v0.939c0,0.138,0.114,0.251,0.256,0.251
	c0.14,0,0.255-0.113,0.255-0.251v-0.939C2.475,12.607,2.36,12.494,2.221,12.494z"/>
<path fill="#FFFFFF" d="M3.978,10.429c-0.142,0-0.256,0.113-0.256,0.251v0.939c0,0.139,0.114,0.251,0.256,0.251
	c0.14,0,0.254-0.112,0.254-0.251v-0.939C4.233,10.54,4.118,10.429,3.978,10.429z"/>
<path fill="#FFFFFF" d="M2.221,10.429c-0.142,0-0.256,0.113-0.256,0.251v0.939c0,0.139,0.114,0.251,0.256,0.251
	c0.14,0,0.255-0.112,0.255-0.251v-0.939C2.475,10.54,2.36,10.429,2.221,10.429z"/>
<path fill="#FFFFFF" d="M2.221,14.559c-0.142,0-0.256,0.112-0.256,0.251v0.937c0,0.139,0.114,0.251,0.256,0.251
	c0.14,0,0.255-0.112,0.255-0.251V14.81C2.475,14.671,2.36,14.559,2.221,14.559z"/>
<path fill="#FFFFFF" d="M2.221,8.365c-0.142,0-0.256,0.112-0.256,0.249v0.94c0,0.138,0.114,0.249,0.256,0.249
	c0.14,0,0.255-0.112,0.255-0.249v-0.94C2.475,8.477,2.36,8.365,2.221,8.365z"/>
<path fill="#FFFFFF" d="M3.978,12.494c-0.142,0-0.256,0.113-0.256,0.251v0.939c0,0.138,0.114,0.251,0.256,0.251
	c0.14,0,0.254-0.113,0.254-0.251v-0.939C4.233,12.607,4.118,12.494,3.978,12.494z"/>
<path fill="#FFFFFF" d="M3.978,14.559c-0.142,0-0.256,0.112-0.256,0.251v0.937c0,0.139,0.114,0.251,0.256,0.251
	c0.14,0,0.254-0.112,0.254-0.251V14.81C4.233,14.671,4.118,14.559,3.978,14.559z"/>
<path fill="#FFFFFF" d="M9.251,10.429c-0.142,0-0.256,0.113-0.256,0.251v0.939c0,0.139,0.114,0.251,0.256,0.251
	c0.14,0,0.254-0.112,0.254-0.251v-0.939C9.505,10.54,9.391,10.429,9.251,10.429z"/>
<path fill="#FFFFFF" d="M12.765,14.559c-0.14,0-0.255,0.112-0.255,0.251v0.937c0,0.139,0.114,0.251,0.255,0.251
	c0.142,0,0.256-0.112,0.256-0.251V14.81C13.021,14.671,12.907,14.559,12.765,14.559z"/>
<path fill="#FFFFFF" d="M12.765,12.494c-0.14,0-0.255,0.113-0.255,0.251v0.939c0,0.138,0.114,0.251,0.255,0.251
	c0.142,0,0.256-0.113,0.256-0.251v-0.939C13.021,12.607,12.907,12.494,12.765,12.494z"/>
<path fill="#FFFFFF" d="M11.008,8.365c-0.142,0-0.256,0.112-0.256,0.249v0.94c0,0.138,0.114,0.249,0.256,0.249
	c0.14,0,0.255-0.112,0.255-0.249v-0.94C11.263,8.477,11.148,8.365,11.008,8.365z"/>
<path fill="#FFFFFF" d="M12.765,10.429c-0.14,0-0.255,0.113-0.255,0.251v0.939c0,0.139,0.114,0.251,0.255,0.251
	c0.142,0,0.256-0.112,0.256-0.251v-0.939C13.021,10.54,12.907,10.429,12.765,10.429z"/>
<path fill="#FFFFFF" d="M14.161,5.994h-0.727C13,3.483,10.964,1.506,8.393,1.117V0.792c0-0.439-0.363-0.793-0.808-0.793H7.334
	c-0.445,0-0.806,0.355-0.806,0.793v0.324c-2.572,0.39-4.608,2.366-5.043,4.878h-0.66c-0.447,0-0.806,0.356-0.806,0.793v0.268
	c0,0.439,0.361,0.793,0.806,0.793h13.336c0.447,0,0.808-0.356,0.808-0.793V6.788C14.967,6.35,14.606,5.994,14.161,5.994z"/>
<path fill="#FFFFFF" d="M11.008,10.429c-0.142,0-0.256,0.113-0.256,0.251v0.939c0,0.139,0.114,0.251,0.256,0.251
	c0.14,0,0.255-0.112,0.255-0.251v-0.939C11.263,10.54,11.148,10.429,11.008,10.429z"/>
<path fill="#FFFFFF" d="M12.765,8.365c-0.14,0-0.255,0.112-0.255,0.249v0.94c0,0.138,0.114,0.249,0.255,0.249
	c0.142,0,0.256-0.112,0.256-0.249v-0.94C13.021,8.477,12.907,8.365,12.765,8.365z"/>
<path fill="#FFFFFF" d="M9.251,8.365c-0.142,0-0.256,0.112-0.256,0.249v0.94c0,0.138,0.114,0.249,0.256,0.249
	c0.14,0,0.254-0.112,0.254-0.249v-0.94C9.505,8.477,9.391,8.365,9.251,8.365z"/>
<path fill="#FFFFFF" d="M9.251,12.494c-0.142,0-0.256,0.113-0.256,0.251v0.939c0,0.138,0.114,0.251,0.256,0.251
	c0.14,0,0.254-0.113,0.254-0.251v-0.939C9.505,12.607,9.391,12.494,9.251,12.494z"/>
<path fill="#FFFFFF" d="M11.008,12.494c-0.142,0-0.256,0.113-0.256,0.251v0.939c0,0.138,0.114,0.251,0.256,0.251
	c0.14,0,0.255-0.113,0.255-0.251v-0.939C11.263,12.607,11.148,12.494,11.008,12.494z"/>
<path fill="#FFFFFF" d="M7.492,8.365c-0.14,0-0.255,0.112-0.255,0.249v0.94c0,0.138,0.114,0.249,0.255,0.249
	c0.142,0,0.256-0.112,0.256-0.249v-0.94C7.748,8.477,7.633,8.365,7.492,8.365z"/>
<path fill="#FFFFFF" d="M9.251,14.559c-0.142,0-0.256,0.112-0.256,0.251v0.937c0,0.139,0.114,0.251,0.256,0.251
	c0.14,0,0.254-0.112,0.254-0.251V14.81C9.505,14.671,9.391,14.559,9.251,14.559z"/>
<path fill="#FFFFFF" d="M7.492,10.429c-0.14,0-0.255,0.113-0.255,0.251v0.939c0,0.139,0.114,0.251,0.255,0.251
	c0.142,0,0.256-0.112,0.256-0.251v-0.939C7.748,10.54,7.633,10.429,7.492,10.429z"/>
<path fill="#FFFFFF" d="M11.008,14.559c-0.142,0-0.256,0.112-0.256,0.251v0.937c0,0.139,0.114,0.251,0.256,0.251
	c0.14,0,0.255-0.112,0.255-0.251V14.81C11.263,14.671,11.148,14.559,11.008,14.559z"/>
</svg>
