<?xml version="1.0" encoding="utf-8"?>
<!-- Generator: Adobe Illustrator 17.0.0, SVG Export Plug-In . SVG Version: 6.00 Build 0)  -->
<!DOCTYPE svg PUBLIC "-//W3C//DTD SVG 1.1//EN" "http://www.w3.org/Graphics/SVG/1.1/DTD/svg11.dtd">
<svg version="1.1" id="Слой_1" xmlns="http://www.w3.org/2000/svg" xmlns:xlink="http://www.w3.org/1999/xlink" x="0px" y="0px"
	 width="16px" height="10px" viewBox="0 0 16 10" enable-background="new 0 0 16 10" xml:space="preserve">
<g>
	<path fill="#FFFFFF" d="M4.369,3.12c0-0.705-0.526-1.269-1.179-1.269c-0.653,0-1.18,0.566-1.18,1.269
		c0,0.708,0.527,1.272,1.18,1.272C3.841,4.392,4.369,3.828,4.369,3.12z"/>
	<path fill="#FFFFFF" d="M16.004,5.919L16,4.168c-0.005-0.555-0.436-0.94-0.939-1.006H4.885v1.504H2.255
		c-0.324,0-0.584,0.283-0.584,0.627c0,0.349,0.26,0.625,0.584,0.625H16.004z"/>
	<path fill="#FFFFFF" d="M0.003,0.688v9.302h1.301V7.829h13.371v2.161h1.312V6.503H1.304V0.706C1.304,0.316,1.015,0,0.65,0
		C0.295,0,0.013,0.307,0.003,0.688z"/>
</g>
</svg>
